Coordinates
version=1
nRows=11
nColumns=21
inDegrees=yes

Units are S.I. units (second, meters, Newtons, ...)
If the header above contains a line with 'inDegrees', this indicates whether rotational values are in degrees (yes) or radians (no).

endheader
time	sternoclavicular_r2	sternoclavicular_r3	unrotscap_r3	unrotscap_r2	acromioclavicular_r2	acromioclavicular_r3	acromioclavicular_r1	unrothum_r1	unrothum_r3	unrothum_r2	elv_angle	shoulder_elev	shoulder1_r2	shoulder_rot	elbow_flexion	pro_sup	deviation	flexion	wrist_hand_r1	wrist_hand_r3
      3.01507538	    -25.29591318	     10.71415492	    -10.71415492	     25.29591318	     -5.12190786	     41.39345767	     18.60607434	    -18.60607434	    -41.39345767	      5.12190786	    129.49835911	    104.52833259	   -129.49835911	    -50.78511563	     27.67231643	      0.00000000	      0.00000000	     -0.00000000	     -0.00000000	      0.00000000
      3.03517588	    -26.23008547	     11.10982621	    -11.10982621	     26.23008547	     -5.31105875	     42.92210859	     19.29319241	    -19.29319241	    -42.92210859	      5.31105875	    127.11277236	    108.38853999	   -127.11277236	    -71.05198901	     29.14937939	      0.00000000	      0.00000000	     -0.00000000	     -0.00000000	      0.00000000
      3.05527638	    -26.10832503	     11.05825424	    -11.05825424	     26.10832503	     -5.28640473	     42.72286354	     19.20363313	    -19.20363313	    -42.72286354	      5.28640473	    127.43941533	    107.88539881	   -127.43941533	    -71.21564528	     30.23398031	      0.00000000	      0.00000000	     -0.00000000	     -0.00000000	      0.00000000
      3.07537688	    -25.98373367	     11.00548322	    -11.00548322	     25.98373367	     -5.26117752	     42.51898605	     19.11199161	    -19.11199161	    -42.51898605	      5.26117752	    127.71317626	    107.37055965	   -127.71317626	    -71.38648726	     31.17380731	      0.00000000	      0.00000000	     -0.00000000	     -0.00000000	      0.00000000
      3.09547739	    -25.85778208	     10.95213607	    -10.95213607	     25.85778208	     -5.23567488	     42.31288272	     19.01934958	    -19.01934958	    -42.31288272	      5.23567488	    127.94333758	    106.85009967	   -127.94333758	    -71.56854075	     31.99967817	      0.00000000	      0.00000000	     -0.00000000	     -0.00000000	      0.00000000
      3.11557789	    -25.73102411	     10.89844738	    -10.89844738	     25.73102411	     -5.21000897	     42.10545987	     18.92611443	    -18.92611443	    -42.10545987	      5.21000897	    128.13508558	    106.32630760	   -128.13508558	    -71.75810715	     32.72531493	      0.00000000	      0.00000000	     -0.00000000	     -0.00000000	      0.00000000
      3.13567839	    -25.60423916	     10.84474725	    -10.84474725	     25.60423916	     -5.18433760	     41.89799286	     18.83285944	    -18.83285944	    -41.89799286	      5.18433760	    128.29357563	    105.80240402	   -128.29357563	    -71.96008072	     33.35620652	      0.00000000	      0.00000000	     -0.00000000	     -0.00000000	      0.00000000
      3.15577889	    -25.47037394	     10.78804826	    -10.78804826	     25.47037394	     -5.15723262	     41.67893991	     18.73439665	    -18.73439665	    -41.67893991	      5.15723262	    128.40818395	    105.24924319	   -128.40818395	    -72.11563059	     33.84518459	      0.00000000	      0.00000000	     -0.00000000	     -0.00000000	      0.00000000
      3.17587940	    -25.34589322	     10.73532411	    -10.73532411	     25.34589322	     -5.13202780	     41.47524348	     18.64283650	    -18.64283650	    -41.47524348	      5.13202780	    128.54432687	    104.73486122	   -128.54432687	    -72.26862850	     34.37586679	      0.00000000	      0.00000000	     -0.00000000	     -0.00000000	      0.00000000
      3.19597990	    -25.21994886	     10.68198002	    -10.68198002	     25.21994886	     -5.10652663	     41.26915199	     18.55019979	    -18.55019979	    -41.26915199	      5.10652663	    128.64015575	    104.21443115	   -128.64015575	    -72.43617267	     34.80412652	      0.00000000	      0.00000000	     -0.00000000	     -0.00000000	      0.00000000
      3.21608040	    -25.09596361	     10.62946572	    -10.62946572	     25.09596361	     -5.08142214	     41.06626631	     18.45900408	    -18.45900408	    -41.06626631	      5.08142214	    128.71002328	    103.70209652	   -128.71002328	    -72.62175279	     35.16288806	      0.00000000	      0.00000000	     -0.00000000	     -0.00000000	      0.00000000
